<?xml version="1.0" encoding="utf-8"?>
<!-- Generator: Adobe Illustrator 22.0.1, SVG Export Plug-In . SVG Version: 6.00 Build 0)  -->
<svg version="1.1" id="图层_1" xmlns="http://www.w3.org/2000/svg" xmlns:xlink="http://www.w3.org/1999/xlink" x="0px" y="0px"
	 viewBox="0 0 512 512" style="enable-background:new 0 0 512 512;" xml:space="preserve">
<style type="text/css">
	.st0{fill:#06BA13;}
</style>
<g>
	<path class="st0" d="M346.7,175.5c5.9,0,11.7,0.3,17.6,1.2c-15.8-71.4-93.9-124.3-182.9-124.3C81.6,52.4,0,118.8,0,203
		c0,48.6,27.2,88.6,72.6,119.4l-18.1,53.2l63.5-31c22.8,4.4,41,8.8,63.5,8.8c5.6,0,11.4-0.3,17-0.6c-3.5-11.7-5.6-24.3-5.6-37.2
		C192.5,238.2,260.7,175.5,346.7,175.5L346.7,175.5z M249.3,127.3c13.8,0,22.8,8.8,22.8,22.2c0,13.2-9.1,22.2-22.8,22.2
		c-13.5,0-27.2-8.8-27.2-22.2C222.1,136.3,235.5,127.3,249.3,127.3L249.3,127.3z M122.3,171.7c-13.5,0-27.2-8.8-27.2-22.2
		c0-13.2,13.8-22.2,27.2-22.2c13.5,0,22.5,8.8,22.5,22.2C144.8,162.7,136,171.7,122.3,171.7L122.3,171.7z M512,313.3
		c0-70.8-72.6-128.4-153.9-128.4c-86.3,0-154.2,57.6-154.2,128.4c0,70.8,67.9,128.4,154.2,128.4c18.1,0,36.3-4.4,54.4-8.8l49.7,26.6
		l-13.8-44.2C485.1,388.5,512,353.4,512,313.3L512,313.3z M308.1,291.1c-9.1,0-18.1-8.8-18.1-17.8c0-8.8,9.1-17.6,18.1-17.6
		c13.7,0,22.8,8.8,22.8,17.6C330.9,282.3,321.8,291.1,308.1,291.1L308.1,291.1z M407.8,291.1c-9.1,0-18.1-8.8-18.1-17.8
		c0-8.8,9.1-17.6,18.1-17.6c13.5,0,22.8,8.8,22.8,17.6C430.7,282.3,421.3,291.1,407.8,291.1L407.8,291.1z M407.8,291.1"/>
</g>
</svg>
